<svg viewBox="0 0 1280 400" xmlns="http://www.w3.org/2000/svg" role="img" aria-label="nyx.js — a standalone 2D game engine and editor">
  <defs>
    <linearGradient id="hm" x1="18" y1="6" x2="40" y2="60" gradientUnits="userSpaceOnUse">
      <stop offset="0" stop-color="#B15CF7"/><stop offset="0.5" stop-color="#B646DC"/><stop offset="1" stop-color="#E24AA0"/>
    </linearGradient>
    <mask id="hc"><rect width="64" height="64" fill="#000"/><circle cx="26" cy="32" r="24" fill="#fff"/><circle cx="43" cy="30" r="21.5" fill="#000"/></mask>
  </defs>
  <rect width="1280" height="400" fill="#0B1020"/>
  <g>
    <rect x="150" y="70" width="7" height="7" rx="1.6" fill="#8B5CF6" opacity="0.55"/>
    <rect x="228" y="300" width="6" height="6" rx="1.4" fill="#22D3EE" opacity="0.45"/>
    <rect x="1040" y="86" width="8" height="8" rx="2" fill="#22D3EE" opacity="0.4"/>
    <rect x="1120" y="250" width="7" height="7" rx="1.6" fill="#AB55F7" opacity="0.5"/>
    <rect x="980" y="330" width="5" height="5" rx="1.2" fill="#EC4899" opacity="0.5"/>
    <rect x="90" y="200" width="5" height="5" rx="1.2" fill="#AB55F7" opacity="0.4"/>
    <rect x="1180" y="150" width="6" height="6" rx="1.4" fill="#8B5CF6" opacity="0.45"/>
    <rect x="660" y="58" width="5" height="5" rx="1.2" fill="#22D3EE" opacity="0.35"/>
  </g>
  <g transform="translate(427,139) scale(1.9)">
    <circle cx="26" cy="32" r="24" fill="url(#hm)" mask="url(#hc)"/>
    <rect x="39" y="13" width="8.4" height="8.4" rx="2.1" fill="#22D3EE"/>
    <rect x="50" y="21.5" width="8.4" height="8.4" rx="2.1" fill="url(#hm)"/>
    <rect x="40.5" y="30" width="7.2" height="7.2" rx="1.8" fill="url(#hm)"/>
    <rect x="51" y="35.5" width="8.4" height="8.4" rx="2.1" fill="url(#hm)"/>
  </g>
  <text x="560" y="230" font-family="Inter, system-ui, -apple-system, 'Segoe UI', Roboto, sans-serif" font-size="104" font-weight="800" letter-spacing="-3" fill="#ffffff">nyx<tspan fill="#B646DC">.js</tspan></text>
  <text x="640" y="300" text-anchor="middle" font-family="Inter, system-ui, -apple-system, 'Segoe UI', Roboto, sans-serif" font-size="26" font-weight="500" letter-spacing="0.4" fill="#8891a8">A standalone 2D game engine and editor</text>
</svg>
