<svg viewBox="0 0 1280 640" xmlns="http://www.w3.org/2000/svg" role="img" aria-label="nyx.js — a standalone 2D game engine and editor">
  <defs>
    <linearGradient id="sm" x1="18" y1="6" x2="40" y2="60" gradientUnits="userSpaceOnUse">
      <stop offset="0" stop-color="#B15CF7"/><stop offset="0.5" stop-color="#B646DC"/><stop offset="1" stop-color="#E24AA0"/>
    </linearGradient>
    <mask id="sc"><rect width="64" height="64" fill="#000"/><circle cx="26" cy="32" r="24" fill="#fff"/><circle cx="43" cy="30" r="21.5" fill="#000"/></mask>
    <linearGradient id="sbg" x1="0" y1="0" x2="0" y2="640" gradientUnits="userSpaceOnUse">
      <stop offset="0" stop-color="#111634"/><stop offset="1" stop-color="#0B1020"/>
    </linearGradient>
  </defs>
  <rect width="1280" height="640" fill="url(#sbg)"/>
  <g>
    <rect x="150" y="110" width="8" height="8" rx="2" fill="#8B5CF6" opacity="0.55"/>
    <rect x="250" y="470" width="7" height="7" rx="1.6" fill="#22D3EE" opacity="0.45"/>
    <rect x="1060" y="120" width="9" height="9" rx="2.2" fill="#22D3EE" opacity="0.4"/>
    <rect x="1120" y="420" width="8" height="8" rx="2" fill="#AB55F7" opacity="0.5"/>
    <rect x="990" y="520" width="6" height="6" rx="1.5" fill="#EC4899" opacity="0.5"/>
    <rect x="110" y="320" width="6" height="6" rx="1.5" fill="#AB55F7" opacity="0.4"/>
    <rect x="1170" y="250" width="7" height="7" rx="1.6" fill="#8B5CF6" opacity="0.45"/>
    <rect x="640" y="90" width="6" height="6" rx="1.5" fill="#22D3EE" opacity="0.35"/>
    <rect x="360" y="540" width="6" height="6" rx="1.5" fill="#8B5CF6" opacity="0.4"/>
    <rect x="880" y="560" width="7" height="7" rx="1.6" fill="#B646DC" opacity="0.4"/>
  </g>
  <g transform="translate(398,232) scale(2.3)">
    <circle cx="26" cy="32" r="24" fill="url(#sm)" mask="url(#sc)"/>
    <rect x="39" y="13" width="8.4" height="8.4" rx="2.1" fill="#22D3EE"/>
    <rect x="50" y="21.5" width="8.4" height="8.4" rx="2.1" fill="url(#sm)"/>
    <rect x="40.5" y="30" width="7.2" height="7.2" rx="1.8" fill="url(#sm)"/>
    <rect x="51" y="35.5" width="8.4" height="8.4" rx="2.1" fill="url(#sm)"/>
  </g>
  <text x="560" y="352" font-family="Inter, system-ui, -apple-system, 'Segoe UI', Roboto, sans-serif" font-size="120" font-weight="800" letter-spacing="-4" fill="#ffffff">nyx<tspan fill="#C05CE6">.js</tspan></text>
  <text x="640" y="440" text-anchor="middle" font-family="Inter, system-ui, -apple-system, 'Segoe UI', Roboto, sans-serif" font-size="30" font-weight="500" letter-spacing="0.5" fill="#8891a8">A standalone 2D game engine and editor</text>
  <text x="640" y="486" text-anchor="middle" font-family="Inter, system-ui, -apple-system, 'Segoe UI', Roboto, sans-serif" font-size="19" font-weight="600" letter-spacing="0.32em" fill="#5b6488">BUILD · CODE · CREATE</text>
</svg>
